<svg version="1.1" xmlns="http://www.w3.org/2000/svg" style="display: block;" viewBox="0 0 2048 2048" width="1254" height="1254" preserveAspectRatio="none">
<path transform="translate(0,0)" fill="rgb(252,159,61)" d="M 1396.01 497.421 C 1411.52 495.722 1435.74 496.655 1451.84 496.726 C 1480.09 496.85 1509.01 496.445 1537.18 497.072 C 1538.19 525.546 1537.04 561.939 1536.99 590.88 L 1535.99 821.352 C 1535.98 849.507 1533.87 890.02 1535.58 916.471 C 1555.68 917.37 1576.75 916.849 1597.04 917.336 C 1597.96 959.012 1597.14 1003.95 1597.12 1045.84 L 1597.01 1292.22 C 1577.04 1292.97 1555.97 1292.23 1535.51 1292.86 C 1535.35 1311.59 1536.36 1342.37 1534.96 1359.33 C 1513.75 1359.82 1492.66 1359.13 1471.22 1359.84 C 1471.6 1376.9 1471.46 1393.98 1470.81 1411.03 C 1424.43 1411.74 1379.04 1411.07 1332.76 1411.23 C 1331.91 1432.12 1333.75 1454.91 1332.19 1474.93 C 1309.17 1475.94 1282.68 1475.36 1259.34 1475.35 L 1134.73 1475.32 L 718.202 1475.48 C 718.44 1454.17 718.913 1432.6 718.133 1411.32 C 675.627 1410.34 622.914 1410.78 580.172 1411.63 C 579.641 1394.91 580.018 1376.38 580.013 1359.52 C 559.314 1359.01 537.019 1359.53 516.206 1359.64 C 515.898 1337.57 516.05 1315.05 515.987 1292.95 C 495.117 1291.86 474.693 1292.81 453.842 1292.14 C 452.825 1252.26 453.547 1210.58 453.235 1170.49 C 452.207 1086.2 451.756 1001.9 451.88 917.601 C 469.043 915.947 496.751 917.438 515.932 916.592 C 513.677 805.215 516.595 693.208 514.844 581.775 C 514.409 554.089 513.724 524.822 514.742 497.222 C 528.936 495.892 551.58 496.722 566.496 496.761 L 656.264 497.032 C 657.139 521.75 656.473 547.354 657.21 572.483 C 667.992 572.987 712.076 570.76 717.366 575.054 C 719.184 576.529 719.904 578.822 720.246 581.05 C 721.312 587.987 720.16 595.949 720.036 602.985 C 719.809 615.971 720.002 628.988 720.054 641.977 L 782.171 641.948 C 782.118 664.62 782.392 687.291 782.994 709.955 L 859.053 709.959 L 924.79 710.063 L 991.6 709.906 L 1057.48 709.953 L 1125.1 710.016 L 1192.15 709.955 C 1218.08 710.173 1244.02 710.078 1269.95 709.67 L 1269.95 640.439 C 1288.22 639.203 1313.24 639.977 1332.19 639.864 C 1333.45 617.485 1332.92 591.825 1332.95 569.195 C 1351.26 569.933 1376.87 569.846 1394.95 568.807 C 1396.18 545.306 1395.83 521.029 1396.01 497.421 z"/>
<path transform="translate(0,0)" fill="rgb(233,116,23)" d="M 991.6 709.906 L 1057.48 709.953 C 1059.34 775.992 1057.76 850.244 1057.76 916.938 L 991.563 916.973 C 990.404 849.295 991.251 777.835 991.6 709.906 z"/>
<path transform="translate(0,0)" fill="rgb(233,116,23)" d="M 1125.1 710.016 L 1192.15 709.955 C 1191.52 724.094 1192.06 743.014 1192.06 757.504 L 1192.03 849.858 L 1125.63 849.826 L 1125.8 753.732 C 1125.81 747.707 1126.37 713.949 1125.1 710.016 z"/>
<path transform="translate(0,0)" fill="rgb(233,116,23)" d="M 859.053 709.959 L 924.79 710.063 C 922.514 716.808 924.014 833.701 924.037 849.846 L 859.337 849.907 L 859.053 709.959 z"/>
<path transform="translate(0,0)" fill="rgb(233,116,23)" d="M 589.841 639.896 L 657.5 639.924 C 657.362 663.181 657.447 686.438 657.757 709.694 L 721.191 709.557 C 720.868 732.84 721.055 756.584 721.028 779.903 C 712.474 779.982 661.476 778.608 657.727 781.154 L 657.77 849.615 C 636.304 850.348 611.605 849.855 589.888 849.827 L 589.841 639.896 z"/>
<path transform="translate(0,0)" fill="rgb(233,116,23)" d="M 1395.26 639.803 L 1460.19 639.867 L 1460.11 849.703 C 1440.26 849.809 1414.82 850.501 1395.23 849.579 L 1395.01 779.862 C 1373.71 779.622 1351.81 779.891 1330.47 779.924 C 1330.23 756.309 1330.27 732.692 1330.6 709.078 C 1352.08 709.316 1373.57 709.36 1395.06 709.21 C 1395.47 686.318 1395.23 662.737 1395.26 639.803 z"/>
<path transform="translate(0,0)" fill="rgb(0,0,0)" d="M 740.341 1042.49 L 820.821 1042.78 L 820.802 1147.12 L 802.5 1147.13 L 721.069 1147.14 L 721.02 1042.69 L 740.341 1042.49 z"/>
<path transform="translate(0,0)" fill="rgb(0,0,0)" d="M 1230.37 1042.89 C 1261.05 1042.07 1299.13 1042.23 1330.06 1042.75 L 1330 1147.1 C 1296.88 1147.47 1263.19 1147.16 1230.02 1147.18 C 1229.88 1112.42 1230 1077.65 1230.37 1042.89 z"/>
<path transform="translate(0,0)" fill="rgb(0,0,0)" d="M 1125.84 1216.97 C 1135.65 1216.91 1145.9 1216.69 1155.67 1216.89 C 1155.76 1222.94 1156.97 1253 1154.81 1256.66 L 1153.66 1257.1 L 1125.72 1257.07 C 1125.75 1269.11 1125.79 1280.44 1125.19 1292.47 C 1103.33 1292.5 1080.95 1292.06 1059.18 1292.83 C 1022.68 1251.47 1029.41 1245.84 991.576 1290.58 C 991.036 1291.22 990.511 1291.86 990.002 1292.53 C 968.313 1292.35 946.623 1292.38 924.935 1292.61 C 924.918 1280.81 924.763 1268.65 924.984 1256.88 L 989.214 1256.78 L 1001.05 1245.84 L 1001.64 1226.98 C 1017.05 1227 1032.8 1226.84 1048.18 1227.07 C 1048.35 1233.38 1048.39 1240.39 1048.9 1246.61 C 1052.62 1250.04 1056.36 1253.45 1060.13 1256.83 L 1125.46 1256.83 L 1125.84 1216.97 z"/>
<path transform="translate(0,0)" fill="rgb(0,0,0)" d="M 597.823 1184.51 C 622.93 1183.56 648.637 1184.65 673.801 1184.17 C 685.678 1183.94 698.13 1184.04 709.98 1184.53 C 710.038 1191.9 710.57 1206.19 709.447 1212.66 L 707.835 1213.64 L 594.956 1213.91 C 594.902 1207.4 594.34 1191.08 595.63 1185.44 L 597.823 1184.51 z"/>
<path transform="translate(0,0)" fill="rgb(0,0,0)" d="M 684.802 1246.49 C 693.067 1246.46 701.655 1246.71 709.948 1246.84 L 709.877 1275.72 L 622.018 1275.6 L 594.964 1275.5 L 595.013 1246.79 L 684.802 1246.49 z"/>
<path transform="translate(0,0)" fill="rgb(0,0,0)" d="M 1446.72 1246.49 L 1456.03 1246.58 L 1455.94 1275.7 L 1350.75 1275.63 L 1341.01 1275.6 C 1340.82 1266.14 1341.01 1256.3 1341.05 1246.81 L 1446.72 1246.49 z"/>
<path transform="translate(0,0)" fill="rgb(0,0,0)" d="M 1342.37 1184.48 C 1378.03 1183.31 1420.07 1184.18 1455.96 1184.37 C 1456.01 1192.36 1456.45 1204.81 1455.52 1212.38 L 1454.02 1213.48 L 1341.07 1213.67 C 1340.98 1207.89 1340.03 1188.34 1342.37 1184.48 z"/>
<path transform="translate(0,0)" fill="rgb(0,0,0)" d="M 894.703 1216.89 L 924.984 1217.04 L 924.984 1256.88 C 914.84 1257.06 904.695 1257.13 894.549 1257.08 C 894.5 1243.83 894.265 1230.08 894.703 1216.89 z"/>
</svg>